<?xml version="1.0" encoding="UTF-8"?>
<svg id="Layer_2" data-name="Layer 2" xmlns="http://www.w3.org/2000/svg" viewBox="0 0 393.02 400.09">
  <defs>
    <style>
      .cls-1 {
        fill: #1e42cd;
      }

      .cls-2 {
        opacity: .05;
      }
    </style>
  </defs>
  <g id="Layer_1-2" data-name="Layer 1">
    <g class="cls-2">
      <path class="cls-1" d="M386.02,15.01V86.82L52.18,366.95c-4.95,4.15-11.22,6.43-17.66,6.43-8.16,0-15.85-3.58-21.09-9.82-4.15-4.94-6.43-11.22-6.43-17.66,0-8.16,3.58-15.85,9.82-21.09L386.02,15.01m7-15.01L12.32,319.45c-8.13,6.83-12.32,16.6-12.32,26.45,0,7.83,2.65,15.7,8.07,22.16,6.83,8.13,16.6,12.32,26.45,12.32,7.82,0,15.69-2.65,22.16-8.07L393.02,90.08V0h0Z"/>
      <path class="cls-1" d="M386.02,132.5v36.55L122.93,389.82c-2.52,2.11-5.71,3.28-8.99,3.28-4.15,0-8.06-1.82-10.73-5-2.12-2.52-3.28-5.71-3.28-8.99,0-4.15,1.82-8.06,5-10.73L386.02,132.5m7-15.01L100.43,363.01c-4.95,4.15-7.5,10.1-7.5,16.09,0,4.77,1.62,9.56,4.92,13.49,4.15,4.95,10.1,7.5,16.09,7.5,4.76,0,9.56-1.61,13.49-4.91L393.02,172.32v-54.83h0Z"/>
    </g>
  </g>
</svg>