<?xml version="1.0" encoding="UTF-8"?>
<svg id="Layer_2" data-name="Layer 2" xmlns="http://www.w3.org/2000/svg" viewBox="0 0 393.02 400.09">
  <defs>
    <style>
      .cls-1 {
        fill: #1e42cd;
      }

      .cls-2 {
        opacity: .05;
      }
    </style>
  </defs>
  <g id="Layer_1-2" data-name="Layer 1">
    <g class="cls-2">
      <path class="cls-1" d="M358.5,26.71c8.16,0,15.85,3.58,21.09,9.82,4.15,4.94,6.43,11.22,6.43,17.66,0,8.16-3.58,15.85-9.82,21.09L7,385.08v-71.8L340.84,33.15c4.94-4.15,11.22-6.43,17.66-6.43h0m0-7c-7.82,0-15.7,2.65-22.16,8.07L0,310.01v90.08L380.7,80.64c8.13-6.83,12.32-16.6,12.32-26.45,0-7.83-2.65-15.7-8.07-22.16-6.83-8.13-16.6-12.32-26.45-12.32h0Z"/>
      <path class="cls-1" d="M279.08,7h0c4.15,0,8.06,1.82,10.73,5,2.12,2.52,3.28,5.71,3.28,8.99,0,4.15-1.82,8.06-5,10.73L7,267.59v-36.55L270.09,10.28c2.52-2.11,5.71-3.28,8.99-3.28M279.08,0c-4.76,0-9.56,1.61-13.49,4.91L0,227.77v54.83L292.59,37.08c4.95-4.15,7.5-10.1,7.5-16.09,0-4.77-1.62-9.56-4.92-13.49C291.02,2.55,285.07,0,279.08,0h0Z"/>
    </g>
  </g>
</svg>